<svg width="31" height="31" viewBox="0 0 31 31" fill="none" xmlns="http://www.w3.org/2000/svg">
<circle cx="15.5" cy="15.5" r="15.5" fill="#D8D8D8" fill-opacity="0.5"/>
<g clip-path="url(#clip0_1_1278)">
<path d="M19.9983 12.5077C19.989 13.0599 19.8853 13.6753 19.5772 14.2544C18.2291 16.7884 16.8811 19.3211 15.5334 21.8525C15.4718 21.97 15.3917 22.0788 15.2955 22.1756C15.1204 22.3489 14.8732 22.3472 14.6974 22.1756C14.6066 22.0867 14.5311 21.9861 14.4732 21.8771C13.1159 19.3018 11.7599 16.7262 10.4051 14.1505C9.99647 13.3763 9.91635 12.5703 10.076 11.7396C10.4281 9.90509 11.9491 8.44952 13.9888 8.09849C16.0011 7.75193 17.6867 8.32208 18.9673 9.77541C19.6543 10.5524 19.9611 11.4165 19.9983 12.5077ZM12.1783 12.4663C12.1348 13.8352 13.3882 14.9945 14.9564 15.0376C16.4874 15.0778 17.778 13.947 17.8183 12.5306C17.8575 11.1577 16.6159 9.99508 15.0403 9.96546C13.5056 9.93415 12.2174 11.0225 12.1789 12.4663H12.1783Z" fill="#497BDF"/>
</g>
<defs>
<clipPath id="clip0_1_1278">
<rect width="10" height="14.3046" fill="white" transform="translate(10 8)"/>
</clipPath>
</defs>
</svg>
