<svg width="31" height="31" viewBox="0 0 31 31" fill="none" xmlns="http://www.w3.org/2000/svg">
<circle cx="15.5" cy="15.5" r="15.5" fill="#D8D8D8" fill-opacity="0.5"/>
<path d="M11.6869 10.0051C11.9494 10.0443 12.1972 10.1422 12.4079 10.2902C12.436 10.3124 12.4678 10.3346 12.494 10.3584C13.0839 10.8961 13.6775 11.4321 14.2636 11.9732C14.4713 12.1514 14.6052 12.3895 14.6427 12.6473C14.6803 12.9051 14.6191 13.1668 14.4696 13.3882C14.3364 13.5909 14.1298 13.7449 13.8853 13.8235C13.7093 13.8735 13.547 13.9572 13.4094 14.0691C13.2718 14.1809 13.1621 14.3184 13.0876 14.4721C12.9819 14.6869 12.964 14.9291 13.0371 15.1549C13.226 15.7408 13.5612 16.2788 14.0164 16.7269C14.5342 17.2881 15.1712 17.7479 15.889 18.0788C16.1812 18.2376 16.5198 18.3108 16.859 18.2887C17.0784 18.2737 17.2888 18.2029 17.4662 18.0843C17.6436 17.9657 17.781 17.8041 17.8627 17.6179C17.9586 17.3494 18.1521 17.1188 18.4114 16.9642C18.6321 16.8411 18.8902 16.7856 19.148 16.8059C19.4058 16.8261 19.6496 16.9211 19.8439 17.0768C20.2053 17.3773 20.5424 17.6982 20.887 18.0139C21.2016 18.3007 21.5274 18.5789 21.8233 18.8827C21.9999 19.0785 22.1008 19.322 22.1103 19.5753C22.1198 19.8287 22.0373 20.0778 21.8757 20.2841C21.8098 20.37 21.7359 20.4506 21.6547 20.5248C21.3083 20.844 20.9506 21.1547 20.6135 21.479C20.4443 21.6411 20.2411 21.7707 20.0159 21.8602C19.7908 21.9496 19.5483 21.997 19.3027 21.9996C18.7623 22.0068 18.2251 21.9223 17.7185 21.7504C16.722 21.4231 15.7843 20.9629 14.9359 20.3848C13.5136 19.4571 12.2464 18.3463 11.1738 17.0871C10.3591 16.175 9.71845 15.1444 9.27876 14.0386C9.08037 13.5554 8.98627 13.0419 9.00162 12.5262C9.00434 12.3054 9.05546 12.0874 9.15194 11.8848C9.24841 11.6823 9.38828 11.4993 9.56339 11.3468C9.87612 11.0771 10.1814 10.7971 10.4791 10.5121C10.7153 10.2462 11.0469 10.0649 11.4154 10L11.6869 10.0051Z" fill="#497BDF"/>
</svg>
