<svg width="30" height="30" viewBox="0 0 30 30" fill="none" xmlns="http://www.w3.org/2000/svg">
<circle cx="15.0975" cy="14.9026" r="14.9026" fill="#4C9DD9"/>
<g clip-path="url(#clip0_1_1265)">
<path d="M15.7055 18.1299C15.5815 18.1822 15.4624 18.2449 15.3497 18.3172C14.8323 18.7137 14.3222 19.1199 13.8085 19.5226C13.5348 19.7407 13.2756 19.6659 13.1698 19.3344C12.8109 18.2266 12.4535 17.1184 12.0976 16.01C12.0867 15.9601 12.062 15.9141 12.0262 15.8766C11.9904 15.8392 11.9448 15.8117 11.8941 15.7972C10.9817 15.4742 10.0692 15.146 9.1567 14.8124C9.06276 14.7808 8.97929 14.7255 8.91489 14.6524C8.88493 14.6119 8.86511 14.5652 8.85697 14.5161C8.84883 14.4669 8.85259 14.4166 8.86797 14.3691C8.88334 14.3216 8.90991 14.2782 8.94559 14.2422C8.98128 14.2062 9.0251 14.1787 9.07366 14.1618C9.24886 14.0861 9.43135 14.0255 9.61111 13.9587C13.4618 12.5272 17.313 11.0958 21.1649 9.66435C21.2449 9.63107 21.3314 9.61487 21.4185 9.61686C21.6321 9.63533 21.7562 9.82525 21.7096 10.0433C21.5691 10.7016 21.4274 11.3607 21.2844 12.0208C20.8191 14.175 20.3543 16.3297 19.8902 18.4851C19.7743 19.0214 19.6593 19.5587 19.5407 20.0941C19.4722 20.401 19.2104 20.4986 18.9448 20.3139C17.9849 19.644 17.0286 18.9713 16.065 18.3048C15.9501 18.2377 15.8299 18.1792 15.7055 18.1299ZM12.729 15.7743C12.7338 15.8229 12.7423 15.8711 12.7546 15.9185C12.9584 16.612 13.1634 17.3054 13.3696 17.9989C13.3933 18.0806 13.4326 18.1413 13.5311 18.1351C13.6297 18.129 13.6662 18.0569 13.678 17.9698C13.7209 17.6542 13.7693 17.3394 13.8058 17.0229C13.8369 16.6912 14.0005 16.3842 14.262 16.1665C15.5157 15.0551 16.7613 13.9332 18.0095 12.8156L18.8746 12.041C18.9275 11.9935 18.9914 11.9443 18.9275 11.8651C18.8636 11.786 18.8007 11.8388 18.7395 11.8766L18.7076 11.895L14.3688 14.4695C13.9235 14.7333 13.4791 14.9971 13.0329 15.2608C12.9397 15.3129 12.8624 15.3879 12.8091 15.4781C12.7557 15.5683 12.7281 15.6705 12.729 15.7743Z" fill="white"/>
</g>
<defs>
<clipPath id="clip0_1_1265">
<rect width="12.8696" height="10.792" fill="white" transform="translate(8.8479 9.61475)"/>
</clipPath>
</defs>
</svg>
