<svg width="30" height="30" viewBox="0 0 30 30" fill="none" xmlns="http://www.w3.org/2000/svg">
<circle cx="14.9026" cy="14.9026" r="14.9026" fill="#47C53A"/>
<g clip-path="url(#clip0_1_1271)">
<path d="M14.843 21.6194C13.7183 21.622 12.609 21.3591 11.6051 20.8521C11.5545 20.824 11.4983 20.8072 11.4406 20.8029C11.3828 20.7986 11.3248 20.8069 11.2706 20.8273C10.1037 21.2024 8.9355 21.5743 7.7659 21.9429C7.66636 21.9747 7.56681 22.0176 7.47418 21.9263C7.38155 21.8351 7.42441 21.7356 7.45759 21.636C7.83824 20.5162 8.21936 19.3964 8.60093 18.2765C8.62176 18.2249 8.63024 18.1692 8.62568 18.1137C8.62112 18.0583 8.60364 18.0047 8.57466 17.9572C7.93477 16.8503 7.62532 15.5832 7.68294 14.306C7.80322 11.7317 8.98942 9.76581 11.1779 8.41925C12.3765 7.68758 13.7703 7.34022 15.172 7.42383C16.6073 7.49065 17.9892 7.98792 19.138 8.85093C20.2868 9.71393 21.1492 10.9027 21.6131 12.2626C22.1124 13.7469 22.1053 15.3548 21.593 16.8346C21.0806 18.3144 20.0919 19.5824 18.7817 20.4402C17.6116 21.2083 16.2427 21.6182 14.843 21.6194ZM9.65855 19.7821L9.80371 19.742C10.3443 19.5705 10.8876 19.4019 11.4268 19.2235C11.49 19.1986 11.5584 19.1897 11.6258 19.1974C11.6933 19.2051 11.7579 19.2293 11.8139 19.2678C12.5152 19.7157 13.3087 19.9992 14.1351 20.0973C15.1473 20.2222 16.1744 20.0722 17.1086 19.663C18.0427 19.2538 18.8494 18.6006 19.4439 17.7719C20.0964 16.8695 20.4619 15.7916 20.493 14.6784C20.5241 13.5653 20.2192 12.4687 19.6181 11.5313C18.8735 10.3386 17.7056 9.47136 16.3485 9.10358C15.3119 8.80558 14.2107 8.81808 13.1812 9.13953C12.1766 9.43745 11.2763 10.0124 10.5834 10.7985C9.74587 11.7323 9.24899 12.9221 9.17368 14.1742C9.09837 15.4263 9.44907 16.6671 10.1687 17.6945C10.2141 17.7524 10.2432 17.8213 10.2532 17.8942C10.2632 17.9671 10.2536 18.0413 10.2254 18.1092C10.036 18.6595 9.85348 19.207 9.65855 19.7821Z" fill="white"/>
<path d="M16.7767 17.9316C16.3716 17.9115 15.9716 17.8328 15.5891 17.698C14.0061 17.2224 12.8863 16.1648 11.9669 14.8458C11.6448 14.3827 11.3641 13.9016 11.2757 13.3361C11.1745 12.7894 11.2874 12.2246 11.5909 11.7587C11.6638 11.6386 11.7608 11.5348 11.8757 11.454C11.9906 11.3731 12.121 11.3168 12.2586 11.2887C12.4397 11.2541 12.6208 11.2181 12.8033 11.1933C12.9024 11.1726 13.0056 11.1871 13.0952 11.2343C13.1848 11.2814 13.2551 11.3584 13.2941 11.4518C13.5153 11.944 13.7241 12.4417 13.9287 12.9407C14.0158 13.155 13.9024 13.3403 13.7904 13.509C13.6881 13.6555 13.5596 13.7855 13.4504 13.9237C13.4241 13.9597 13.4047 14.0371 13.4241 14.062C13.9964 14.8776 14.6877 15.5578 15.6181 15.9643C15.6375 15.9768 15.6592 15.9852 15.682 15.9889C15.7047 15.9926 15.728 15.9915 15.7503 15.9858C15.7726 15.9801 15.7935 15.9698 15.8117 15.9557C15.8299 15.9415 15.8449 15.9237 15.8559 15.9035C16.0038 15.7085 16.1642 15.5205 16.3191 15.3283C16.4739 15.1362 16.6329 15.074 16.8817 15.1694C17.0628 15.2371 17.2384 15.3228 17.4126 15.4058C17.7209 15.5523 18.0251 15.7044 18.332 15.8537C18.4012 15.8852 18.4595 15.9363 18.4999 16.0007C18.5402 16.0651 18.5607 16.14 18.5587 16.2159C18.6113 17.2846 17.7569 17.8307 16.984 17.9122C16.9204 17.9261 16.8582 17.9275 16.7767 17.9316Z" fill="white"/>
</g>
<defs>
<clipPath id="clip0_1_1271">
<rect width="14.5675" height="14.5661" fill="white" transform="translate(7.41699 7.41699)"/>
</clipPath>
</defs>
</svg>
