<svg width="59" height="59" viewBox="0 0 59 59" fill="none" xmlns="http://www.w3.org/2000/svg">
<g clip-path="url(#clip0_1_719)">
<path d="M25.8356 27.3779C25.8356 26.4096 25.8356 25.5787 25.8356 24.7477C25.8356 23.0148 25.0578 22.2296 23.3412 22.2296H19.713C18.0645 22.2296 17.2686 23.024 17.2686 24.6699V39.1441C17.0599 39.1579 16.8808 39.1808 16.7017 39.1831C15.0576 39.1831 13.4136 39.1831 11.7696 39.1831C9.04849 39.167 7.17998 37.2831 7.17772 34.5384C7.17772 29.1223 7.17772 23.7046 7.17772 18.2855V17.5529C6.47476 18.0588 5.87838 18.5121 5.26159 18.9264C4.83646 19.2327 4.34108 19.4248 3.82212 19.4845C3.30316 19.5441 2.77769 19.4695 2.29521 19.2675C1.81273 19.0655 1.38912 18.7429 1.06427 18.33C0.739422 17.9171 0.524037 17.4275 0.438394 16.9074C0.211633 15.5774 0.730915 14.529 1.79896 13.7438C4.71963 11.6072 7.63804 9.4669 10.5542 7.32273L19.4455 0.80325C20.9081 -0.26807 22.1666 -0.284093 23.602 0.775781C29.4978 5.09769 35.3935 9.42264 41.2893 13.7507C42.4821 14.6251 42.9515 15.9025 42.5909 17.1981C42.4667 17.6748 42.2318 18.1148 41.9057 18.4817C41.5795 18.8485 41.1716 19.1317 40.7155 19.3078C40.2594 19.4839 39.7683 19.5477 39.2829 19.4942C38.7976 19.4406 38.3318 19.2711 37.9242 18.9997C37.2824 18.5785 36.6725 18.1023 35.9355 17.5689V22.9896C31.9808 23.0652 28.6791 24.5211 25.8356 27.3779Z" fill="#487BDE" fill-opacity="0.2"/>
<path d="M46.0854 43.9517L49.6342 47.8067C50.6478 47.1611 50.9585 47.1909 51.7725 47.9852C53.8073 49.9768 55.8399 51.9698 57.8701 53.9644C58.632 54.713 58.6366 55.2395 57.8996 56.0064C57.2193 56.7045 56.5617 57.4073 55.8882 58.1009C55.2148 58.7945 54.6705 58.7877 53.9857 58.1215C51.9222 56.1071 49.8609 54.0896 47.802 52.069C47.0219 51.3045 46.9765 50.9634 47.4391 50.1805L43.9243 46.3805C40.9651 48.7727 37.6816 49.7707 33.9832 49.1549C31.0202 48.689 28.3443 47.101 26.5001 44.714C24.6858 42.4188 23.7478 39.5424 23.8567 36.6081C23.9655 33.6737 25.114 30.8762 27.0932 28.7244C29.0724 26.5725 31.7509 25.2092 34.6416 24.8824C37.5323 24.5555 40.4432 25.2869 42.845 26.9434C47.7793 30.3153 50.1807 37.8763 46.0854 43.9517ZM35.9877 28.2802C34.2633 28.2798 32.5774 28.7956 31.1434 29.7623C29.7093 30.7291 28.5914 32.1035 27.9311 33.7116C27.2707 35.3197 27.0976 37.0894 27.4336 38.7969C27.7696 40.5043 28.5996 42.0729 29.8186 43.3042C31.0377 44.5354 32.591 45.3741 34.2823 45.7142C35.9735 46.0542 37.7266 45.8804 39.32 45.2146C40.9133 44.5489 42.2753 43.4211 43.2337 41.9739C44.1922 40.5267 44.704 38.8251 44.7044 37.0843C44.7056 35.9282 44.481 34.7832 44.0434 33.7148C43.6058 32.6464 42.9639 31.6755 42.1543 30.8578C41.3447 30.0401 40.3833 29.3916 39.3252 28.9493C38.2671 28.507 37.133 28.2796 35.9877 28.2802Z" fill="#487BDE" fill-opacity="0.2"/>
</g>
<defs>
<clipPath id="clip0_1_719">
<rect width="58.0643" height="58.6227" fill="white" transform="translate(0.384033)"/>
</clipPath>
</defs>
</svg>
