<svg width="53" height="51" viewBox="0 0 53 51" fill="none" xmlns="http://www.w3.org/2000/svg">
<g clip-path="url(#clip0_1_726)">
<path d="M42.6196 48.6646C41.3398 48.379 40.3107 48.8671 39.3819 49.7054C39.0206 50.0054 38.6429 50.2846 38.2505 50.5418C37.4261 51.1351 36.8162 51.1493 36.0038 50.5519C35.2435 50.0011 34.4973 49.4321 33.727 48.8995C33.5238 48.7623 33.2871 48.6845 33.0429 48.6747C32.1081 48.6504 31.1713 48.6747 30.2345 48.6625C29.2315 48.6504 28.746 48.2919 28.4291 47.3179C28.1442 46.4552 27.8895 45.5824 27.5765 44.7319C27.4653 44.4435 27.2805 44.1899 27.0409 43.9968C26.3188 43.4237 25.5585 42.9012 24.8203 42.3484C24.0821 41.7955 23.8895 41.19 24.1643 40.3112C24.4552 39.3796 24.7661 38.4582 25.051 37.5226C25.1131 37.3022 25.1131 37.0687 25.051 36.8483C24.7762 35.9309 24.4652 35.0257 24.1743 34.1084C23.8835 33.191 24.0801 32.5774 24.8664 31.9942C25.5384 31.494 26.2004 30.9817 26.8985 30.5179C27.2901 30.2615 27.5699 29.8639 27.6809 29.4062C27.9156 28.582 28.1944 27.7699 28.4672 26.9579C28.7541 26.0972 29.2536 25.7307 30.1422 25.7226C31.079 25.7226 32.0158 25.7428 32.9506 25.7084C33.2578 25.6904 33.5548 25.5905 33.8112 25.4188C34.5615 24.9126 35.2756 24.3577 36.0178 23.8251C36.8323 23.2318 37.4421 23.2338 38.2626 23.8251C39.0088 24.3678 39.739 24.9308 40.4993 25.4452C40.7298 25.5971 40.9965 25.6838 41.2716 25.6963C42.2224 25.7266 43.1753 25.6963 44.1281 25.7104C44.9827 25.7104 45.4982 26.0912 45.7771 26.9255C46.078 27.8185 46.3347 28.7258 46.6597 29.6087C46.7778 29.9122 46.972 30.1795 47.2234 30.3843C47.8734 30.9128 48.5654 31.3968 49.2394 31.8828C50.2284 32.6119 50.3909 33.1262 50.0077 34.3129C49.7369 35.1452 49.4561 35.9755 49.2053 36.8139C49.1411 37.0519 49.1411 37.3029 49.2053 37.5409C49.4741 38.4602 49.7851 39.3634 50.0719 40.2828C50.3588 41.2022 50.1602 41.7976 49.4039 42.3585C48.6477 42.9194 47.9054 43.4318 47.1853 44.0069C46.9473 44.2026 46.7646 44.4583 46.6557 44.7481C46.3448 45.6006 46.096 46.4755 45.8112 47.3402C45.5063 48.2737 45.0088 48.6362 44.0298 48.6544C43.5564 48.6706 43.089 48.6646 42.6196 48.6646ZM34.1181 42.8992L43.6607 33.27L41.5003 31.1032L31.9617 40.7324L34.1181 42.8992ZM40.413 39.5842C40.2045 39.5799 39.9971 39.6175 39.8031 39.6948C39.6091 39.7722 39.4323 39.8877 39.283 40.0347C39.1336 40.1817 39.0147 40.3572 38.9332 40.5511C38.8517 40.7449 38.8092 40.9531 38.8082 41.1637C38.805 41.3785 38.8442 41.5918 38.9234 41.7911C39.0026 41.9905 39.1203 42.172 39.2696 42.325C39.419 42.478 39.597 42.5995 39.7933 42.6825C39.9895 42.7654 40.2002 42.8081 40.413 42.8081C40.8364 42.8008 41.2404 42.6278 41.5398 42.3255C41.8392 42.0233 42.0106 41.6154 42.0178 41.188C42.0136 40.7612 41.8426 40.3532 41.5421 40.0529C41.2416 39.7526 40.8359 39.5841 40.413 39.5842ZM32.2686 33.1667C32.2638 33.3773 32.3004 33.5868 32.3762 33.783C32.4519 33.9792 32.5655 34.1584 32.7102 34.3101C32.8549 34.4619 33.0279 34.5832 33.2193 34.6671C33.4107 34.751 33.6166 34.7958 33.8253 34.7989C34.0344 34.8017 34.2421 34.7629 34.4364 34.6847C34.6307 34.6065 34.8078 34.4904 34.9577 34.343C35.1075 34.1957 35.2272 34.02 35.3098 33.826C35.3924 33.632 35.4363 33.4234 35.4391 33.2123C35.4419 33.0011 35.4034 32.7915 35.3259 32.5954C35.2484 32.3992 35.1334 32.2204 34.9875 32.0691C34.8415 31.9178 34.6675 31.797 34.4753 31.7137C34.2831 31.6303 34.0766 31.5859 33.8674 31.5831C33.6581 31.5774 33.4497 31.6142 33.2547 31.6913C33.0597 31.7684 32.8821 31.8842 32.7322 32.0319C32.5824 32.1796 32.4634 32.3561 32.3824 32.551C32.3014 32.746 32.26 32.9553 32.2606 33.1667H32.2686Z" fill="#487BDE" fill-opacity="0.2"/>
<path d="M5.52637 9.43495C6.32877 7.67314 7.61262 6.74566 9.3759 6.40747C16.853 4.97103 24.328 3.52918 31.8011 2.08194C35.2594 1.41569 38.7158 0.741344 42.1782 0.0892728C42.8032 -0.0389347 43.4473 -0.0395276 44.0726 0.0875362C44.6979 0.2146 45.2916 0.46675 45.8188 0.829112C46.346 1.19148 46.7961 1.65672 47.1423 2.19742C47.4886 2.73813 47.7242 3.34334 47.8351 3.97739C48.9558 9.81633 50.0638 15.6573 51.1591 21.5003C51.464 23.1062 51.7609 24.712 52.0718 26.3159C52.4229 28.1182 51.7288 29.5357 50.4971 30.8075C49.7448 30.2567 49.0126 29.7301 48.2905 29.1874C48.1727 29.0718 48.0893 28.9252 48.0498 28.7642C47.7769 27.9542 47.5803 27.1036 47.2313 26.3341C46.9531 25.7682 46.5882 25.2502 46.1501 24.7991C46.0467 24.7076 45.9644 24.5944 45.909 24.4674C45.8536 24.3404 45.8263 24.2028 45.8291 24.064C45.8371 20.909 45.8371 17.7539 45.8291 14.5989C45.8291 11.4884 43.793 9.43495 40.7098 9.43495H5.52637Z" fill="#487BDE" fill-opacity="0.2"/>
<path d="M44.2243 19.1287H0.968712C0.950658 19.1105 0.910536 19.0862 0.910536 19.0598C0.910536 17.373 0.850356 15.6841 0.910536 13.9972C0.976734 12.3954 2.3649 11.1175 3.95366 11.0527C4.12015 11.0527 4.28866 11.0527 4.45516 11.0527H40.6636C42.9425 11.0527 44.2243 12.3528 44.2243 14.6655C44.2243 15.9817 44.2243 17.298 44.2243 18.6143V19.1287Z" fill="#487BDE" fill-opacity="0.2"/>
<path d="M23.5826 43.4559H4.42122C2.2146 43.4559 0.894653 42.1335 0.894653 39.9059C0.894653 35.8922 0.894653 31.8772 0.894653 27.8608V27.2837H26.6679C26.4873 27.8527 26.3228 28.4177 26.1222 28.9665C26.0417 29.1126 25.924 29.2342 25.7812 29.3189C25.1252 29.811 24.4572 30.2889 23.7993 30.781C23.2311 31.1789 22.8072 31.7533 22.5921 32.4167C22.377 33.0802 22.3825 33.7964 22.6077 34.4565C22.8284 35.1794 23.045 35.9084 23.3078 36.6152C23.456 36.9903 23.4524 37.4092 23.2978 37.7816C23.0972 38.3324 22.9568 38.9096 22.7501 39.4604C22.2005 40.9225 22.359 42.2287 23.5826 43.4559ZM5.72914 35.3171H15.2918V32.1418H5.73315L5.72914 35.3171Z" fill="#487BDE" fill-opacity="0.2"/>
</g>
<defs>
<clipPath id="clip0_1_726">
<rect width="51.2716" height="50.9891" fill="white" transform="translate(0.884521)"/>
</clipPath>
</defs>
</svg>
