<svg width="49" height="57" viewBox="0 0 49 57" fill="none" xmlns="http://www.w3.org/2000/svg">
<path d="M0.622681 20.5225C0.622681 18.365 0.622681 16.2066 0.622681 14.0475C0.622681 12.4096 1.35572 11.6128 2.99774 11.5808C6.24022 11.5388 9.39719 11.0356 12.4222 9.82203C16.7926 8.12489 20.4994 5.04166 22.9853 1.0357C23.8528 -0.345638 25.3213 -0.360442 26.1839 1.00117C29.7855 6.67454 34.9803 9.94043 41.48 11.1146C43.0145 11.3933 44.5905 11.45 46.1519 11.5413C47.8208 11.6424 48.5636 12.3701 48.5612 14.0401C48.5612 18.1323 48.6296 22.222 48.5318 26.3118C48.3461 34.2052 45.4091 41.0034 40.119 46.7853C36.3805 50.8652 31.9333 53.9633 26.9413 56.2845C26.2361 56.639 25.4607 56.8282 24.6729 56.8381C23.8851 56.8479 23.1053 56.6781 22.3916 56.3412C16.1045 53.4305 10.6996 49.3778 6.56521 43.7217C2.78668 38.6173 0.714099 32.432 0.647117 26.0602C0.612908 24.2102 0.647117 22.3602 0.647117 20.5102L0.622681 20.5225ZM17.3629 34.7824C17.0917 37.1701 18.8852 39.2816 22.5382 40.8628V44.1755H26.6921V40.9688C27.6426 40.4582 28.5638 40.0858 29.3457 39.5184C32.6908 37.0937 32.7299 32.6117 29.4679 30.0784C28.0788 29.0127 26.3794 28.4411 24.6347 28.4529C23.7537 28.4705 22.8927 28.1871 22.1912 27.6488C21.2383 26.8865 21.2456 25.8234 22.1912 25.0365C23.7673 23.7119 27.2199 23.9907 27.8112 26.2945H31.9236C31.6157 22.967 29.6096 21.228 26.6579 20.2512V16.8965H22.5138C22.5138 17.9053 22.5015 18.8846 22.5138 19.8565C22.5138 20.1772 22.4038 20.3005 22.113 20.4214C21.3898 20.6875 20.6941 21.0246 20.0361 21.4278C16.6592 23.7144 16.3562 28.0878 19.3763 30.7395C20.7452 31.9353 22.4921 32.5984 24.3024 32.6092C25.2358 32.6364 26.1252 32.777 26.8998 33.3493C27.9822 34.1534 27.9798 35.2807 26.9144 36.1119C25.3751 37.3132 22.0031 37.0986 21.3727 34.7602L17.3629 34.7824Z" fill="#487BDE" fill-opacity="0.2"/>
</svg>
